<svg width="32" height="32" viewBox="0 0 32 32" fill="none" xmlns="http://www.w3.org/2000/svg">
  <!-- Background circle -->
  <circle cx="16" cy="16" r="14" fill="rgba(5, 150, 105, 0.1)" stroke="#059669" stroke-width="2"/>
  
  <!-- Simplified microgreens sprouts for favicon -->
  <g transform="translate(8, 9)">
    <!-- Central sprout -->
    <path d="M8 13 Q8 9 8 7" stroke="#059669" stroke-width="2" stroke-linecap="round" fill="none"/>
    <circle cx="8" cy="7" r="2" fill="#059669"/>
    <ellipse cx="6.5" cy="6" rx="2" ry="1" fill="#34d399"/>
    <ellipse cx="9.5" cy="6" rx="2" ry="1" fill="#10b981"/>
    
    <!-- Left sprout -->
    <path d="M3 14 Q3 10 3 8" stroke="#059669" stroke-width="1.5" stroke-linecap="round" fill="none"/>
    <circle cx="3" cy="8" r="1.5" fill="#059669"/>
    <ellipse cx="2" cy="7" rx="1.5" ry="0.7" fill="#34d399"/>
    <ellipse cx="4" cy="7" rx="1.5" ry="0.7" fill="#10b981"/>
    
    <!-- Right sprout -->
    <path d="M13 14 Q13 11 13 9" stroke="#059669" stroke-width="1.5" stroke-linecap="round" fill="none"/>
    <circle cx="13" cy="9" r="1.5" fill="#059669"/>
    <ellipse cx="12" cy="8" rx="1.5" ry="0.7" fill="#34d399"/>
    <ellipse cx="14" cy="8" rx="1.5" ry="0.7" fill="#10b981"/>
    
    <!-- Soil base -->
    <rect x="0" y="14" width="16" height="3" rx="1.5" fill="#8b4513"/>
  </g>
</svg> 