<svg width="16" height="16" viewBox="0 0 16 16" fill="none" xmlns="http://www.w3.org/2000/svg">
  <!-- Background circle -->
  <circle cx="8" cy="8" r="7" fill="rgba(5, 150, 105, 0.1)" stroke="#059669" stroke-width="1"/>
  
  <!-- Simplified microgreens sprouts for 16x16 -->
  <g transform="translate(4, 4)">
    <!-- Central sprout -->
    <path d="M4 7 Q4 5 4 3.5" stroke="#059669" stroke-width="1" stroke-linecap="round" fill="none"/>
    <circle cx="4" cy="3.5" r="1" fill="#059669"/>
    <ellipse cx="3.2" cy="3" rx="1" ry="0.5" fill="#34d399"/>
    <ellipse cx="4.8" cy="3" rx="1" ry="0.5" fill="#10b981"/>
    
    <!-- Left sprout -->
    <path d="M1.5 7.5 Q1.5 5.5 1.5 4" stroke="#059669" stroke-width="0.8" stroke-linecap="round" fill="none"/>
    <circle cx="1.5" cy="4" r="0.8" fill="#059669"/>
    <ellipse cx="1" cy="3.6" rx="0.8" ry="0.4" fill="#34d399"/>
    <ellipse cx="2" cy="3.6" rx="0.8" ry="0.4" fill="#10b981"/>
    
    <!-- Right sprout -->
    <path d="M6.5 7.5 Q6.5 5.8 6.5 4.5" stroke="#059669" stroke-width="0.8" stroke-linecap="round" fill="none"/>
    <circle cx="6.5" cy="4.5" r="0.8" fill="#059669"/>
    <ellipse cx="6" cy="4.1" rx="0.8" ry="0.4" fill="#34d399"/>
    <ellipse cx="7" cy="4.1" rx="0.8" ry="0.4" fill="#10b981"/>
    
    <!-- Soil base -->
    <rect x="0" y="7" width="8" height="1.5" rx="0.8" fill="#8b4513"/>
  </g>
</svg>