<svg width="64" height="64" viewBox="0 0 64 64" fill="none" xmlns="http://www.w3.org/2000/svg">
  <!-- Background circle with theme-aware colors -->
  <circle cx="32" cy="32" r="28" fill="rgba(5, 150, 105, 0.05)" stroke="#059669" stroke-width="3"/>
  
  <!-- Microgreens sprouts centered -->
  <g transform="translate(16, 18)">
    <!-- Sprout 1 - Center -->
    <path d="M16 26 Q16 20 16 16" stroke="#059669" stroke-width="3" stroke-linecap="round" fill="none"/>
    <circle cx="16" cy="16" r="3" fill="#059669"/>
    <ellipse cx="13" cy="14" rx="3" ry="1.5" fill="#34d399"/>
    <ellipse cx="19" cy="14" rx="3" ry="1.5" fill="#10b981"/>
    
    <!-- Sprout 2 - Left -->
    <path d="M8 28 Q8 22 8 18" stroke="#059669" stroke-width="2.5" stroke-linecap="round" fill="none"/>
    <circle cx="8" cy="18" r="2.5" fill="#059669"/>
    <ellipse cx="5.5" cy="16.5" rx="2.5" ry="1.2" fill="#34d399"/>
    <ellipse cx="10.5" cy="16.5" rx="2.5" ry="1.2" fill="#10b981"/>
    
    <!-- Sprout 3 - Right -->
    <path d="M24 28 Q24 23 24 19" stroke="#059669" stroke-width="2.5" stroke-linecap="round" fill="none"/>
    <circle cx="24" cy="19" r="2.5" fill="#059669"/>
    <ellipse cx="21.5" cy="17.5" rx="2.5" ry="1.2" fill="#34d399"/>
    <ellipse cx="26.5" cy="17.5" rx="2.5" ry="1.2" fill="#10b981"/>
    
    <!-- Soil base -->
    <rect x="0" y="28" width="32" height="6" rx="3" fill="#8b4513"/>
  </g>
  
  <!-- Modern accent elements -->
  <g opacity="0.8">
    <circle cx="12" cy="12" r="2.5" fill="#059669"/>
    <circle cx="52" cy="12" r="2" fill="#34d399"/>
    <circle cx="12" cy="52" r="2" fill="#34d399"/>
    <circle cx="52" cy="52" r="2.5" fill="#059669"/>
  </g>
</svg> 