<svg width="240" height="72" viewBox="0 0 240 72" fill="none" xmlns="http://www.w3.org/2000/svg">
  <!-- Background circle for the icon -->
  <circle cx="36" cy="36" r="30" fill="rgba(5, 150, 105, 0.05)" stroke="#059669" stroke-width="2.5"/>
  
  <!-- Microgreens sprouts -->
  <g transform="translate(18, 20)">
    <!-- Sprout 1 - Center -->
    <path d="M18 28 Q18 22 18 18" stroke="#059669" stroke-width="2.8" stroke-linecap="round" fill="none"/>
    <circle cx="18" cy="18" r="2.8" fill="#059669"/>
    <ellipse cx="15.5" cy="16.5" rx="2.8" ry="1.4" fill="#34d399"/>
    <ellipse cx="20.5" cy="16.5" rx="2.8" ry="1.4" fill="#10b981"/>
    
    <!-- Sprout 2 - Left -->
    <path d="M8 30 Q8 24 8 20" stroke="#059669" stroke-width="2.4" stroke-linecap="round" fill="none"/>
    <circle cx="8" cy="20" r="2.4" fill="#059669"/>
    <ellipse cx="5.8" cy="18.5" rx="2.4" ry="1.2" fill="#34d399"/>
    <ellipse cx="10.2" cy="18.5" rx="2.4" ry="1.2" fill="#10b981"/>
    
    <!-- Sprout 3 - Right -->
    <path d="M28 30 Q28 25 28 21" stroke="#059669" stroke-width="2.4" stroke-linecap="round" fill="none"/>
    <circle cx="28" cy="21" r="2.4" fill="#059669"/>
    <ellipse cx="25.8" cy="19.5" rx="2.4" ry="1.2" fill="#34d399"/>
    <ellipse cx="30.2" cy="19.5" rx="2.4" ry="1.2" fill="#10b981"/>
    
    <!-- Soil base -->
    <rect x="0" y="30" width="36" height="5" rx="2.5" fill="#8b4513"/>
  </g>
  
  <!-- Text: OFMS -->
  <text x="84" y="32" font-family="Inter, system-ui, sans-serif" font-size="24" font-weight="700" fill="#111827">OFMS</text>
  
  <!-- Subtitle -->
  <text x="84" y="48" font-family="Inter, system-ui, sans-serif" font-size="13" font-weight="500" fill="#374151">Microgreens Manager</text>
  
  <!-- Modern accent line -->
  <rect x="84" y="54" width="36" height="2.5" rx="1.25" fill="#059669"/>
  <rect x="124" y="56.5" width="18" height="1.2" rx="0.6" fill="#34d399"/>
  
  <!-- Tech pattern dots -->
  <g opacity="0.7">
    <circle cx="190" cy="18" r="2" fill="#059669"/>
    <circle cx="200" cy="18" r="1.5" fill="#34d399"/>
    <circle cx="208" cy="18" r="2" fill="#059669"/>
    <circle cx="216" cy="18" r="1.5" fill="#34d399"/>
    
    <circle cx="190" cy="28" r="1.5" fill="#34d399"/>
    <circle cx="200" cy="28" r="2" fill="#059669"/>
    <circle cx="208" cy="28" r="1.5" fill="#34d399"/>
    <circle cx="216" cy="28" r="2" fill="#059669"/>
    
    <circle cx="190" cy="38" r="2" fill="#059669"/>
    <circle cx="200" cy="38" r="1.5" fill="#34d399"/>
    <circle cx="208" cy="38" r="2" fill="#059669"/>
    <circle cx="216" cy="38" r="1.5" fill="#34d399"/>
    
    <circle cx="190" cy="48" r="1.5" fill="#34d399"/>
    <circle cx="200" cy="48" r="2" fill="#059669"/>
    <circle cx="208" cy="48" r="1.5" fill="#34d399"/>
    <circle cx="216" cy="48" r="2" fill="#059669"/>
  </g>
</svg> 